<svg xmlns="http://www.w3.org/2000/svg" version="1.1" xmlns:xlink="http://www.w3.org/1999/xlink" xmlns:svgjs="http://svgjs.dev/svgjs" width="2000" height="1500" viewBox="0 0 2000 1500"><rect width="2000" height="1500" fill="#ffffff"></rect><g transform="matrix(0.75,0,0,0.75,249.090909090909,565.8857636526429)"><svg viewBox="0 0 396 97" data-background-color="#ffffff" preserveAspectRatio="xMidYMid meet" height="489" width="2000" xmlns="http://www.w3.org/2000/svg" xmlns:xlink="http://www.w3.org/1999/xlink"><g id="tight-bounds" transform="matrix(1,0,0,1,0.2400000000000091,0.19551717980542094)"><svg viewBox="0 0 395.52 96.60896564038917" height="96.60896564038917" width="395.52"><g><svg viewBox="0 0 590.597512403696 144.2582291239583" height="96.60896564038917" width="395.52"><g transform="matrix(1,0,0,1,195.077512403696,18.312458824274238)"><svg viewBox="0 0 395.52 107.63331147540983" height="107.63331147540983" width="395.52"><g id="textblocktransform"><svg viewBox="0 0 395.52 107.63331147540983" height="107.63331147540983" width="395.52" id="textblock"><g><svg viewBox="0 0 395.52 107.63331147540983" height="107.63331147540983" width="395.52"><g transform="matrix(1,0,0,1,0,0)"><svg width="395.52" viewBox="4.37 -36.23 171.25 46.61" height="107.63331147540983" data-palette-color="#b52121"><path d="M26.61-13.33L26.61-13.33Q26.61 0.49 17.04 0.49L17.04 0.49Q11.04 0.49 8.96-4L8.96-4 8.84-4Q8.94-3.81 8.94 0.05L8.94 0.05 8.94 10.38 4.52 10.38 4.52-20.95Q4.52-25.1 4.37-26.42L4.37-26.42 8.64-26.42Q8.67-26.32 8.72-25.7 8.76-25.07 8.83-23.86 8.89-22.66 8.89-22.07L8.89-22.07 8.98-22.07Q10.21-24.63 12.1-25.79 13.99-26.95 17.04-26.95L17.04-26.95Q21.88-26.95 24.24-23.62 26.61-20.29 26.61-13.33ZM22.07-13.33L22.07-13.33Q22.07-18.85 20.58-21.2 19.09-23.56 15.89-23.56L15.89-23.56Q12.21-23.56 10.57-20.89 8.94-18.21 8.94-12.79L8.94-12.79Q8.94-7.59 10.57-5.18 12.21-2.76 15.84-2.76L15.84-2.76Q19.09-2.76 20.58-5.22 22.07-7.69 22.07-13.33ZM55.52-26.49L55.52-22.41Q52.78-22.88 50.34-22.88L50.34-22.88Q46.41-22.88 43.99-19.92 41.57-16.97 41.57-12.4L41.57-12.4 41.57 0 37.18 0 37.18-17.11Q37.18-18.97 36.85-21.48 36.52-24 35.91-26.42L35.91-26.42 40.09-26.42Q41.06-23.05 41.26-20.31L41.26-20.31 41.38-20.31Q42.6-23.05 43.77-24.33 44.94-25.61 46.56-26.26 48.17-26.9 50.49-26.9L50.49-26.9Q53.02-26.9 55.52-26.49L55.52-26.49ZM86.88-2.71L86.88-2.71Q87.52-2.71 88.33-2.88L88.33-2.88 88.33-0.15Q86.66 0.24 84.93 0.24L84.93 0.24Q82.49 0.24 81.38-1.04 80.27-2.32 80.12-5.05L80.12-5.05 79.98-5.05Q78.39-2.1 76.23-0.81 74.07 0.49 70.89 0.49L70.89 0.49Q67.04 0.49 65.08-1.61 63.13-3.71 63.13-7.37L63.13-7.37Q63.13-15.89 74.21-16.02L74.21-16.02 79.98-16.11 79.98-17.55Q79.98-20.75 78.68-22.16 77.39-23.56 74.56-23.56L74.56-23.56Q71.67-23.56 70.41-22.53 69.14-21.51 68.89-19.36L68.89-19.36 64.3-19.78Q65.42-26.9 74.63-26.9L74.63-26.9Q79.51-26.9 81.97-24.62 84.42-22.34 84.42-18.02L84.42-18.02 84.42-6.64Q84.42-4.69 84.93-3.7 85.44-2.71 86.88-2.71ZM72.02-2.86L72.02-2.86Q74.36-2.86 76.17-3.98 77.97-5.1 78.97-6.98 79.98-8.86 79.98-10.86L79.98-10.86 79.98-13.04 75.34-12.94Q72.46-12.89 70.94-12.3 69.43-11.72 68.59-10.51 67.74-9.3 67.74-7.3L67.74-7.3Q67.74-5.3 68.83-4.08 69.92-2.86 72.02-2.86ZM107.07 0L102.97 0 102.97-16.75Q102.97-20.51 102.37-22.01 101.77-23.51 100.19-23.51L100.19-23.51Q98.63-23.51 97.66-21.17 96.7-18.82 96.7-14.82L96.7-14.82 96.7 0 92.57 0 92.57-20.78Q92.57-25.39 92.42-26.42L92.42-26.42 96.06-26.42 96.21-23.32 96.21-22.14 96.26-22.14Q97.09-24.63 98.36-25.77 99.63-26.9 101.53-26.9L101.53-26.9Q103.68-26.9 104.74-25.73 105.8-24.56 106.27-22.12L106.27-22.12 106.32-22.12Q107.29-24.71 108.65-25.81 110-26.9 112.08-26.9L112.08-26.9Q114.96-26.9 116.2-24.8 117.45-22.71 117.45-17.6L117.45-17.6 117.45 0 113.35 0 113.35-16.75Q113.35-20.51 112.75-22.01 112.15-23.51 110.56-23.51L110.56-23.51Q108.95-23.51 108.01-21.46 107.07-19.41 107.07-15.31L107.07-15.31 107.07 0ZM146.79-13.23L146.79-13.23Q146.79-6.57 143.73-3.04 140.66 0.49 134.88 0.49L134.88 0.49Q129.21 0.49 126.2-3.08 123.18-6.64 123.18-13.23L123.18-13.23Q123.18-20.04 126.27-23.47 129.36-26.9 135.02-26.9L135.02-26.9Q140.98-26.9 143.89-23.51 146.79-20.12 146.79-13.23ZM142.18-13.23L142.18-13.23Q142.18-18.48 140.51-21.07 138.83-23.66 135.1-23.66L135.1-23.66Q131.31-23.66 129.56-21.02 127.8-18.38 127.8-13.23L127.8-13.23Q127.8-8.11 129.56-5.43 131.31-2.76 134.83-2.76L134.83-2.76Q138.71-2.76 140.44-5.37 142.18-7.98 142.18-13.23ZM171.18-4.25L171.06-4.25Q169.86-1.68 167.88-0.52 165.91 0.63 162.95 0.63L162.95 0.63Q158.02 0.63 155.7-2.76 153.38-6.15 153.38-12.99L153.38-12.99Q153.38-26.81 162.95-26.81L162.95-26.81Q165.91-26.81 167.9-25.76 169.88-24.71 171.08-22.31L171.08-22.31 171.13-22.31 171.08-26 171.08-36.23 175.48-36.23 175.48-5.44Q175.48-1.32 175.62 0L175.62 0 171.42 0Q171.33-0.37 171.25-1.78 171.18-3.2 171.18-4.25L171.18-4.25ZM157.92-13.13L157.92-13.13Q157.92-7.71 159.37-5.24 160.83-2.76 164.1-2.76L164.1-2.76Q167.66-2.76 169.37-5.33 171.08-7.91 171.08-13.53L171.08-13.53Q171.08-18.77 169.43-21.17 167.79-23.56 164.15-23.56L164.15-23.56Q160.85-23.56 159.39-21.04 157.92-18.53 157.92-13.13Z" opacity="1" transform="matrix(1,0,0,1,0,0)" fill="#b52121" class="wordmark-text-0" data-fill-palette-color="primary" id="text-0"></path></svg></g></svg></g></svg></g></svg></g><g><svg viewBox="0 0 144.2582291239583 144.2582291239583" height="144.2582291239583" width="144.2582291239583"><g><svg></svg></g><g id="icon-0"><svg viewBox="0 0 144.2582291239583 144.2582291239583" height="144.2582291239583" width="144.2582291239583"><g><path d="M0 72.129c0-39.836 32.293-72.129 72.129-72.129 39.836 0 72.129 32.293 72.129 72.129 0 39.836-32.293 72.129-72.129 72.129-39.836 0-72.129-32.293-72.129-72.129zM72.129 134.552c34.475 0 62.423-27.948 62.423-62.423 0-34.475-27.948-62.423-62.423-62.423-34.475 0-62.423 27.948-62.423 62.423 0 34.475 27.948 62.423 62.423 62.423z" data-fill-palette-color="tertiary" fill="#c32840" stroke="transparent"></path></g><g transform="matrix(1,0,0,1,49.779057636675866,33.606918406447726)"><svg viewBox="0 0 44.70011385060657 77.04439231106285" height="77.04439231106285" width="44.70011385060657"><g><svg xmlns="http://www.w3.org/2000/svg" xmlns:xlink="http://www.w3.org/1999/xlink" version="1.1" x="0" y="0" viewBox="21.679106830508616 1 56.85827385947762 98" enable-background="new 0 0 100 100" xml:space="preserve" height="77.04439231106285" width="44.70011385060657" class="icon-dxe-0" data-fill-palette-color="accent" id="dxe-0"><g fill="#e10d2d" data-fill-palette-color="accent"><path fill-rule="evenodd" clip-rule="evenodd" d="M30.545 28.822C29.38 36.039 30.875 43.672 37.045 47.863 30.758 19.81 45.756 8.664 59.646 1 43.466 24.046 76.542 24.644 78.423 51.13 80.028 73.71 64.507 91.317 46.639 99 46.845 76.175 24.089 73.067 21.801 54.397 20.905 47.094 25.062 33.766 30.545 28.822" fill="#e10d2d" data-fill-palette-color="accent"></path></g></svg></g></svg></g></svg></g></svg></g></svg></g><defs></defs></svg><rect width="395.52" height="96.60896564038917" fill="none" stroke="none" visibility="hidden"></rect></g></svg></g></svg>